<svg width="57" height="57" viewBox="0 0 57 57" fill="none" xmlns="http://www.w3.org/2000/svg">
<g id="Layer_1" clip-path="url(#clip0_4270_2538)">
<path id="Vector" d="M48.2554 48.2298C59.151 37.3339 59.151 19.6681 48.2554 8.77217C37.3598 -2.12374 19.6945 -2.12374 8.79884 8.77217C-2.09679 19.6681 -2.09679 37.3339 8.79884 48.2298C19.6945 59.1257 37.3598 59.1257 48.2554 48.2298Z" fill="#3C5B9A"/>
<path id="Vector_2" fill-rule="evenodd" clip-rule="evenodd" d="M24.1538 36.9203C24.1538 34.3085 24.1435 31.6982 24.1627 29.0879C24.1656 28.6484 24.0417 28.5098 23.6023 28.5275C22.7882 28.5599 21.9727 28.5245 21.1587 28.5422C20.8284 28.5511 20.7074 28.4596 20.7104 28.1101C20.7266 26.4805 20.7251 24.8509 20.7119 23.2213C20.7089 22.9087 20.8033 22.8055 21.1203 22.8114C21.9536 22.8305 22.7882 22.7878 23.62 22.8291C24.1022 22.8527 24.201 22.6816 24.1922 22.2347C24.1627 20.9945 24.1627 19.7527 24.1907 18.5125C24.2231 16.9979 24.6302 15.5836 25.5327 14.3522C26.6741 12.7934 28.2978 12.0796 30.1692 11.997C32.0922 11.9115 34.0196 11.9587 35.9456 11.9381C36.214 11.9351 36.2936 12.031 36.2936 12.292C36.2848 13.9393 36.2833 15.5881 36.2936 17.2353C36.2966 17.5288 36.2007 17.6188 35.9131 17.6129C34.987 17.5981 34.0609 17.6055 33.1363 17.6085C31.9034 17.6129 31.1661 18.247 31.0894 19.4666C31.0274 20.4444 31.0732 21.4281 31.0496 22.4102C31.0407 22.7597 31.2486 22.7362 31.4802 22.7362C32.887 22.7347 34.2954 22.7494 35.7023 22.7258C36.1152 22.7185 36.2509 22.8143 36.2037 23.2479C36.0267 24.8849 35.8748 26.5248 35.7347 28.1662C35.7023 28.5363 35.5341 28.6071 35.2009 28.6012C34.0904 28.5835 32.98 28.5894 31.868 28.5968C31.0702 28.6012 31.1484 28.4803 31.1484 29.2944C31.1439 34.4044 31.138 39.5158 31.1602 44.6258C31.1631 45.1656 31.0245 45.2998 30.4906 45.2895C28.5838 45.2541 26.6756 45.2526 24.7688 45.2895C24.232 45.2998 24.1435 45.1184 24.1479 44.6391C24.1686 42.0657 24.1582 39.4922 24.1582 36.9173L24.1538 36.9203Z" fill="#FEFEFE"/>
</g>
<defs>
<clipPath id="clip0_4270_2538">
<rect width="55.8" height="55.8" fill="white" transform="translate(0.626343 0.600098)"/>
</clipPath>
</defs>
</svg>
