<svg width="57" height="57" viewBox="0 0 57 57" fill="none" xmlns="http://www.w3.org/2000/svg">
<g id="Layer_1" clip-path="url(#clip0_4270_2541)">
<path id="Vector" d="M52.1073 0.600098H4.54552C2.27089 0.600098 0.426392 2.4446 0.426392 4.71922V52.281C0.426392 54.5556 2.27089 56.4001 4.54552 56.4001H52.1073C54.3819 56.4001 56.2264 54.5556 56.2264 52.281V4.71922C56.2264 2.4446 54.3819 0.600098 52.1073 0.600098ZM17.0579 48.1386H8.66852V21.4863H17.0579V48.1347V48.1386ZM12.8651 17.7935C10.1953 17.7935 8.02914 15.7591 8.02914 12.9768C8.02914 10.1946 10.1953 8.16022 12.8651 8.16022C15.535 8.16022 17.7011 10.1946 17.7011 12.9768C17.7011 15.7591 15.535 17.7935 12.8651 17.7935ZM47.9843 48.158H39.5949V33.6035C39.5949 29.31 37.7698 27.9847 35.4138 27.9847C32.926 27.9847 30.4848 29.8563 30.4848 33.712V48.1618H22.0954V21.5057H30.1631V25.1986H30.2716C31.0815 23.5595 33.918 20.7578 38.2464 20.7578C42.9274 20.7578 47.9843 23.5362 47.9843 31.6737V48.158Z" fill="#3F78BD"/>
</g>
<defs>
<clipPath id="clip0_4270_2541">
<rect width="55.8" height="55.8" fill="white" transform="translate(0.426392 0.600098)"/>
</clipPath>
</defs>
</svg>
