<svg width="121" height="50" viewBox="0 0 121 50" fill="none" xmlns="http://www.w3.org/2000/svg">
<g id="Vector">
<path d="M5.77 10.335H10.04L15.84 26.865H11.4L10.44 23.905H5.28L4.34 26.865H0L5.77 10.335ZM9.39 20.525L7.86 15.715L6.33 20.525H9.39Z" fill="black"/>
<path d="M15.9 20.355V10.425H20.15V20.405C20.15 22.375 21.11 23.315 22.57 23.315C24.03 23.315 24.99 22.425 24.99 20.475V10.425H29.26V20.285C29.26 25.045 26.56 27.135 22.55 27.135C18.54 27.135 15.91 25.025 15.91 20.355" fill="black"/>
<path d="M34.96 14.235H30.9V10.425H43.25V14.235H39.19V26.865H34.96V14.235Z" fill="black"/>
<path d="M44.89 18.835V18.485C44.89 13.575 48.11 10.125 52.52 10.125C56.93 10.125 60.13 13.525 60.13 18.455V18.805C60.13 23.715 56.91 27.165 52.5 27.165C48.09 27.165 44.89 23.765 44.89 18.835ZM55.8 18.785V18.525C55.8 15.685 54.44 13.945 52.49 13.945C50.54 13.945 49.2 15.655 49.2 18.495V18.755C49.2 21.595 50.56 23.335 52.51 23.335C54.46 23.335 55.8 21.625 55.8 18.785Z" fill="black"/>
<path d="M0 46.795L2.25 43.715C3.59 44.815 5.11 45.575 6.71 45.575C7.84 45.575 8.42 45.085 8.42 44.375V44.355C8.42 43.695 7.93 43.295 6 42.615C2.9 41.555 0.72 40.435 0.72 37.455V37.385C0.72 34.405 3 32.315 6.59 32.315C8.8 32.315 10.75 32.925 12.46 34.315L10.32 37.465C9.19 36.595 7.83 35.965 6.49 35.965C5.53 35.965 4.99 36.435 4.99 37.045V37.065C4.99 37.795 5.51 38.165 7.6 38.945C10.72 39.955 12.67 41.225 12.67 44.015V44.065C12.67 47.255 10.21 49.225 6.69 49.225C4.25 49.225 1.92 48.475 0 46.805" fill="black"/>
<path d="M14.32 42.475V32.545H18.57V42.525C18.57 44.495 19.53 45.435 20.99 45.435C22.45 45.435 23.41 44.545 23.41 42.595V32.545H27.68V42.405C27.68 47.165 24.98 49.255 20.97 49.255C16.96 49.255 14.33 47.145 14.33 42.475" fill="black"/>
<path d="M29.31 32.785H36.12C38.09 32.785 39.62 33.255 40.58 34.245C41.26 34.905 41.66 35.795 41.66 36.965V37.055C41.66 38.935 40.58 40.065 39.22 40.665C40.98 41.325 42.23 42.405 42.23 44.565V44.655C42.23 47.475 40.02 49.205 36.15 49.205H29.32V32.775L29.31 32.785ZM37.48 37.825C37.48 36.835 36.78 36.295 35.51 36.295H33.42V39.365H35.44C36.73 39.365 37.48 38.845 37.48 37.835V37.815V37.825ZM35.88 42.475H33.42V45.695H35.91C37.23 45.695 38 45.105 38 44.095V44.075C38 43.115 37.27 42.475 35.89 42.475" fill="black"/>
<path d="M48.43 32.685H52.7L58.5 49.215H54.06L53.1 46.255H47.94L47 49.215H42.66L48.43 32.685ZM52.04 42.875L50.51 38.065L48.98 42.875H52.04Z" fill="black"/>
<path d="M59.47 46.795L61.72 43.715C63.06 44.815 64.58 45.575 66.18 45.575C67.31 45.575 67.89 45.085 67.89 44.375V44.355C67.89 43.695 67.4 43.295 65.47 42.615C62.37 41.555 60.19 40.435 60.19 37.455V37.385C60.19 34.405 62.47 32.315 66.06 32.315C68.27 32.315 70.22 32.925 71.93 34.315L69.79 37.465C68.66 36.595 67.3 35.965 65.96 35.965C65 35.965 64.46 36.435 64.46 37.045V37.065C64.46 37.795 64.98 38.165 67.07 38.945C70.19 39.955 72.14 41.225 72.14 44.015V44.065C72.14 47.255 69.68 49.225 66.16 49.225C63.72 49.225 61.39 48.475 59.47 46.805" fill="black"/>
<path d="M77.85 36.585H73.78V32.785H86.13V36.585H82.07V49.215H77.85V36.585Z" fill="black"/>
<path d="M108.01 46.795L110.26 43.715C111.6 44.815 113.12 45.575 114.72 45.575C115.85 45.575 116.43 45.085 116.43 44.375V44.355C116.43 43.695 115.94 43.295 114.01 42.615C110.91 41.555 108.73 40.435 108.73 37.455V37.385C108.73 34.405 111.01 32.315 114.6 32.315C116.81 32.315 118.76 32.925 120.47 34.315L118.33 37.465C117.2 36.595 115.84 35.965 114.5 35.965C113.54 35.965 113 36.435 113 37.045V37.065C113 37.795 113.52 38.165 115.61 38.945C118.73 39.955 120.68 41.225 120.68 44.015V44.065C120.68 47.255 118.22 49.225 114.7 49.225C112.26 49.225 109.93 48.475 108.01 46.805" fill="black"/>
<path d="M94.44 31.155C94.63 31.095 94.82 31.045 95 30.965C95.08 30.935 95.16 30.855 95.28 30.735C95.37 30.645 95.47 30.545 95.58 30.455C95.9 30.205 96.25 30.005 96.59 29.885L94.77 26.745H89.32L92.45 32.165C92.79 31.895 93.16 31.655 93.57 31.455C93.87 31.315 94.16 31.225 94.44 31.145V31.155Z" fill="#A0A0A0"/>
<path d="M106.67 47.365L102.55 40.235L102.48 40.105L101.21 37.905C100.74 38.595 100.27 39.285 99.79 39.965L98.98 41.125C98.75 41.455 98.49 41.695 98.18 41.875C98.15 41.895 98.11 41.915 98.08 41.935L102.28 49.205H107.73L106.67 47.365Z" fill="#A0A0A0"/>
<path d="M101.41 35.485C101.31 35.175 101.09 34.895 100.78 34.765C100.7 34.735 100.63 34.705 100.56 34.655C100.46 34.585 100.45 34.495 100.45 34.385C100.45 33.885 100.12 33.405 99.59 33.365C99.48 33.355 99.34 33.365 99.25 33.275C99.19 33.215 99.18 33.125 99.19 33.045C99.21 32.745 99.23 32.475 99.06 32.205C98.97 32.055 98.83 31.935 98.66 31.865C98.49 31.795 98.3 31.785 98.13 31.715C98.08 31.695 98.03 31.645 98.02 31.595C98.01 31.545 98.02 31.495 98.02 31.445C98.11 30.855 97.65 30.425 97.12 30.425C97.05 30.425 96.97 30.445 96.89 30.465C96.86 30.465 96.82 30.465 96.79 30.485C96.49 30.585 96.2 30.765 95.95 30.965C95.7 31.165 95.54 31.425 95.22 31.555C94.76 31.745 94.28 31.815 93.82 32.035C93.46 32.205 93.09 32.445 92.74 32.725C92.27 33.105 91.85 33.555 91.62 34.075C91.44 34.495 91.45 34.965 91.47 35.415C91.49 35.945 91.49 36.475 91.5 37.005C91.52 37.935 91.53 38.865 91.55 39.795C91.55 40.145 91.46 40.475 91.27 40.785C91.23 40.855 91.15 40.985 91.05 41.155L86.26 49.225H91.62L91.76 48.995C91.76 48.995 91.8 48.955 91.82 48.935C91.93 48.765 92.38 48.005 92.92 47.105C93.8 45.635 94.89 43.775 95.05 43.485C95.35 42.935 95.75 42.545 96.28 42.275C96.78 42.015 97.27 41.715 97.76 41.435C97.79 41.415 97.83 41.395 97.86 41.375C98.1 41.235 98.3 41.045 98.46 40.815C99.26 39.665 100.07 38.515 100.85 37.355C100.89 37.305 100.92 37.255 100.96 37.205C101.22 36.815 101.46 36.355 101.45 35.865C101.45 35.745 101.43 35.635 101.39 35.525L101.41 35.485Z" fill="black"/>
<path d="M102.01 23.105H94.55V19.375H109.47V15.645H94.55V4.455H102.01V0.744995H68.69C66.9 0.744995 65.45 2.195 65.45 3.985V23.505C65.45 25.295 66.9 26.745 68.69 26.745H102.01V23.105ZM90.82 8.185H75.9V19.375H87.09V15.645H79.63V11.915H90.82V23.105H72.17V4.455H90.82V8.185Z" fill="#0056B3"/>
<path d="M116.69 0.744995H105.75V4.455H113.21V8.185H98.29V11.915H113.21V23.105H105.75V26.745H116.69C118.48 26.745 119.93 25.295 119.93 23.505V3.985C119.93 2.195 118.48 0.744995 116.69 0.744995Z" fill="#0056B3"/>
</g>
</svg>
