<svg width="250" height="101" viewBox="0 0 250 101" fill="none" xmlns="http://www.w3.org/2000/svg">
<g id="Vector">
<path d="M12.5077 20.2691H21.31L33.2663 54.3446H24.1136L22.1346 48.2427H11.4976L9.55989 54.3446H0.613281L12.5077 20.2691ZM19.9701 41.2751L16.8161 31.3596L13.6621 41.2751H19.9701Z" fill="white"/>
<path d="M33.39 40.9247V20.4546H42.1511V41.0277C42.1511 45.0887 44.1301 47.0265 47.1398 47.0265C50.1495 47.0265 52.1284 45.1918 52.1284 41.172V20.4546H60.9307V40.7804C60.9307 50.5928 55.3649 54.9012 47.0985 54.9012C38.8322 54.9012 33.4106 50.5515 33.4106 40.9247" fill="white"/>
<path d="M72.6809 28.3087H64.3115V20.4546H89.7702V28.3087H81.4007V54.3446H72.6809V28.3087Z" fill="white"/>
<path d="M93.1509 37.7913V37.0698C93.1509 26.9482 99.7887 19.8362 108.88 19.8362C117.971 19.8362 124.567 26.8451 124.567 37.0079V37.7294C124.567 47.8511 117.929 54.963 108.838 54.963C99.7475 54.963 93.1509 47.9541 93.1509 37.7913ZM115.641 37.6882V37.1522C115.641 31.2978 112.838 27.7109 108.818 27.7109C104.798 27.7109 102.036 31.2359 102.036 37.0904V37.6264C102.036 43.4808 104.839 47.0677 108.859 47.0677C112.879 47.0677 115.641 43.5427 115.641 37.6882Z" fill="white"/>
<path d="M0.613281 95.4289L5.2515 89.0797C8.01382 91.3473 11.1472 92.9139 14.4455 92.9139C16.7749 92.9139 17.9705 91.9038 17.9705 90.4402V90.399C17.9705 89.0385 16.9604 88.2139 12.9819 86.8121C6.59143 84.627 2.09751 82.3182 2.09751 76.1751V76.0308C2.09751 69.8878 6.79757 65.5794 14.1981 65.5794C18.7539 65.5794 22.7737 66.8368 26.2987 69.7022L21.8872 76.1957C19.5578 74.4023 16.7543 73.1036 13.992 73.1036C12.013 73.1036 10.8998 74.0725 10.8998 75.3299V75.3712C10.8998 76.876 11.9718 77.6387 16.2802 79.2467C22.7118 81.3287 26.7316 83.9467 26.7316 89.6981V89.8012C26.7316 96.3771 21.6605 100.438 14.4043 100.438C9.37436 100.438 4.57123 98.8921 0.613281 95.4495" fill="white"/>
<path d="M30.133 86.5235V66.0535H38.894V86.6266C38.894 90.6876 40.873 92.6253 43.8827 92.6253C46.8924 92.6253 48.8714 90.7907 48.8714 86.7709V66.0535H57.6737V86.3792C57.6737 96.1916 52.1078 100.5 43.8415 100.5C35.5751 100.5 30.1536 96.1504 30.1536 86.5235" fill="white"/>
<path d="M61.0338 66.5482H75.0722C79.1332 66.5482 82.2872 67.5171 84.2661 69.5579C85.6679 70.9185 86.4925 72.7532 86.4925 75.165V75.3505C86.4925 79.226 84.2661 81.5555 81.4626 82.7923C85.0907 84.1529 87.6675 86.3792 87.6675 90.8319V91.0174C87.6675 96.8307 83.1117 100.397 75.134 100.397H61.0544V66.5276L61.0338 66.5482ZM77.8757 76.9379C77.8757 74.897 76.4327 73.7839 73.8147 73.7839H69.5063V80.1124H73.6704C76.3296 80.1124 77.8757 79.0405 77.8757 76.9585V76.9172V76.9379ZM74.5774 86.5235H69.5063V93.1613H74.6393C77.3603 93.1613 78.9476 91.9451 78.9476 89.863V89.8218C78.9476 87.8428 77.4428 86.5235 74.598 86.5235" fill="white"/>
<path d="M100.448 66.3421H109.251L121.207 100.418H112.054L110.075 94.3157H99.4383L97.5005 100.418H88.5539L100.448 66.3421ZM107.89 87.3481L104.736 77.4326L101.582 87.3481H107.89Z" fill="white"/>
<path d="M123.207 95.4289L127.845 89.0797C130.607 91.3473 133.74 92.9139 137.039 92.9139C139.368 92.9139 140.564 91.9038 140.564 90.4402V90.399C140.564 89.0385 139.554 88.2139 135.575 86.8121C129.185 84.627 124.691 82.3182 124.691 76.1751V76.0308C124.691 69.8878 129.391 65.5794 136.791 65.5794C141.347 65.5794 145.367 66.8368 148.892 69.7022L144.481 76.1957C142.151 74.4023 139.348 73.1036 136.585 73.1036C134.606 73.1036 133.493 74.0725 133.493 75.3299V75.3712C133.493 76.876 134.565 77.6387 138.873 79.2467C145.305 81.3287 149.325 83.9467 149.325 89.6981V89.8012C149.325 96.3771 144.254 100.438 136.998 100.438C131.968 100.438 127.165 98.8921 123.207 95.4495" fill="white"/>
<path d="M161.096 74.3817H152.706V66.5482H178.164V74.3817H169.795V100.418H161.096V74.3817Z" fill="white"/>
<path d="M223.268 95.4289L227.907 89.0797C230.669 91.3473 233.802 92.9139 237.101 92.9139C239.43 92.9139 240.626 91.9038 240.626 90.4402V90.399C240.626 89.0385 239.616 88.2139 235.637 86.8121C229.247 84.627 224.753 82.3182 224.753 76.1751V76.0308C224.753 69.8878 229.453 65.5794 236.853 65.5794C241.409 65.5794 245.429 66.8368 248.954 69.7022L244.542 76.1957C242.213 74.4023 239.409 73.1036 236.647 73.1036C234.668 73.1036 233.555 74.0725 233.555 75.3299V75.3712C233.555 76.876 234.627 77.6387 238.935 79.2467C245.367 81.3287 249.387 83.9467 249.387 89.6981V89.8012C249.387 96.3771 244.316 100.438 237.059 100.438C232.029 100.438 227.226 98.8921 223.268 95.4495" fill="white"/>
<path d="M195.295 63.1881C195.686 63.0644 196.078 62.9613 196.449 62.7964C196.614 62.7346 196.779 62.5697 197.026 62.3223C197.212 62.1368 197.418 61.9306 197.645 61.7451C198.304 61.2297 199.026 60.8175 199.727 60.5701L195.975 54.0972H184.74L191.193 65.2701C191.893 64.7136 192.656 64.2188 193.501 63.8065C194.12 63.5179 194.718 63.3324 195.295 63.1675V63.1881Z" fill="white"/>
<path d="M220.506 96.6039L212.013 81.9059L211.869 81.6379L209.251 77.1028C208.282 78.5252 207.313 79.9475 206.323 81.3493L204.654 83.7406C204.18 84.4208 203.644 84.9156 203.005 85.2866C202.943 85.3279 202.86 85.3691 202.798 85.4103L211.456 100.397H222.691L220.506 96.6039Z" fill="white"/>
<path d="M209.663 72.1141C209.457 71.4751 209.003 70.8979 208.364 70.6299C208.199 70.568 208.055 70.5062 207.911 70.4031C207.705 70.2588 207.684 70.0733 207.684 69.8465C207.684 68.8158 207.004 67.8263 205.911 67.7439C205.684 67.7233 205.396 67.7439 205.21 67.5583C205.087 67.4347 205.066 67.2491 205.087 67.0842C205.128 66.4658 205.169 65.9092 204.819 65.3526C204.633 65.0434 204.344 64.796 203.994 64.6517C203.644 64.5074 203.252 64.4868 202.901 64.3425C202.798 64.3013 202.695 64.1982 202.675 64.0951C202.654 63.9921 202.675 63.889 202.675 63.7859C202.86 62.5697 201.912 61.6833 200.819 61.6833C200.675 61.6833 200.51 61.7245 200.345 61.7657C200.283 61.7657 200.201 61.7657 200.139 61.8069C199.521 62.0131 198.923 62.3841 198.408 62.7964C197.892 63.2087 197.562 63.7447 196.903 64.0127C195.954 64.4044 194.965 64.5487 194.017 65.0022C193.275 65.3526 192.512 65.8474 191.79 66.4246C190.821 67.2079 189.956 68.1355 189.482 69.2075C189.111 70.0733 189.131 71.0422 189.172 71.9698C189.214 73.0624 189.214 74.1549 189.234 75.2475C189.275 77.1646 189.296 79.0817 189.337 80.9989C189.337 81.7204 189.152 82.4006 188.76 83.0397C188.678 83.184 188.513 83.452 188.307 83.8024L178.432 100.438H189.482L189.77 99.964C189.77 99.964 189.853 99.8816 189.894 99.8403C190.121 99.4899 191.048 97.9232 192.161 96.0679C193.975 93.0376 196.222 89.2034 196.552 88.6056C197.171 87.4718 197.995 86.6678 199.088 86.1112C200.119 85.5752 201.129 84.9568 202.139 84.3796C202.201 84.3384 202.283 84.2972 202.345 84.2559C202.84 83.9673 203.252 83.5757 203.582 83.1015C205.231 80.7309 206.901 78.3602 208.509 75.969C208.591 75.8659 208.653 75.7628 208.735 75.6598C209.271 74.8558 209.766 73.9075 209.745 72.8974C209.745 72.6501 209.704 72.4233 209.622 72.1966L209.663 72.1141Z" fill="white"/>
<path d="M210.9 46.5936H195.522V38.9045H226.278V31.2153H195.522V8.14791H210.9V0.5H142.213C138.523 0.5 135.534 3.48907 135.534 7.17904V47.4182C135.534 51.1081 138.523 54.0972 142.213 54.0972H210.9V46.5936ZM187.832 15.837H157.076V38.9045H180.143V31.2153H164.765V23.5262H187.832V46.5936H149.387V8.14791H187.832V15.837Z" fill="white"/>
<path d="M241.162 0.5H218.61V8.14791H233.988V15.837H203.231V23.5262H233.988V46.5936H218.61V54.0972H241.162C244.852 54.0972 247.841 51.1081 247.841 47.4182V7.17904C247.841 3.48907 244.852 0.5 241.162 0.5Z" fill="white"/>
</g>
</svg>
